<mxfile host="Electron" modified="2024-06-09T00:39:45.722Z" agent="Mozilla/5.0 (Windows NT 10.0; Win64; x64) AppleWebKit/537.36 (KHTML, like Gecko) draw.io/24.4.8 Chrome/124.0.6367.207 Electron/30.0.6 Safari/537.36" etag="Td7ip2cVv6l7h8i7S_EO" version="24.4.8" type="device">
  <diagram name="Página-1" id="Djwg78DFh6G4U--HuTXR">
    <mxGraphModel dx="1420" dy="830" grid="1" gridSize="10" guides="1" tooltips="1" connect="1" arrows="1" fold="1" page="1" pageScale="1" pageWidth="827" pageHeight="1169" background="#CCE5FF" math="0" shadow="0">
      <root>
        <mxCell id="0" />
        <mxCell id="1" parent="0" />
        <mxCell id="Ng3zc3pQ8-nIIgDV_-j_-1" value="&lt;b style=&quot;font-size: 16px;&quot;&gt;&lt;font style=&quot;font-size: 16px;&quot; color=&quot;#000000&quot; face=&quot;Comic Sans MS&quot;&gt;4 Leer 10 números y guardarlos en un vector. Determinar e informar cuál es el valor máximo absoluto del vector. Por ejemplo 20, -43 y 5, el máximo absoluto es -43.&lt;/font&gt;&lt;/b&gt;" style="text;whiteSpace=wrap;html=1;fontFamily=Architects Daughter;fontSource=https%3A%2F%2Ffonts.googleapis.com%2Fcss%3Ffamily%3DArchitects%2BDaughter;" vertex="1" parent="1">
          <mxGeometry x="60" y="20" width="690" height="60" as="geometry" />
        </mxCell>
        <mxCell id="Ng3zc3pQ8-nIIgDV_-j_-116" value="" style="group;aspect=fixed;" vertex="1" connectable="0" parent="1">
          <mxGeometry x="160" y="130" width="439.28" height="1720" as="geometry" />
        </mxCell>
        <mxCell id="Ng3zc3pQ8-nIIgDV_-j_-2" value="" style="group;aspect=fixed;" vertex="1" connectable="0" parent="Ng3zc3pQ8-nIIgDV_-j_-116">
          <mxGeometry x="240" width="50" height="50" as="geometry" />
        </mxCell>
        <mxCell id="Ng3zc3pQ8-nIIgDV_-j_-3" value="" style="strokeWidth=2;html=1;shape=mxgraph.flowchart.start_2;whiteSpace=wrap;rounded=0;labelBackgroundColor=none;strokeColor=#000000;align=center;verticalAlign=middle;fontFamily=Helvetica;fontSize=12;fontColor=default;fillColor=#d5e8d4;aspect=fixed;" vertex="1" parent="Ng3zc3pQ8-nIIgDV_-j_-2">
          <mxGeometry width="50" height="50" as="geometry" />
        </mxCell>
        <mxCell id="Ng3zc3pQ8-nIIgDV_-j_-4" value="&lt;b&gt;&lt;font color=&quot;#000000&quot; style=&quot;font-size: 19px;&quot; face=&quot;Comic Sans MS&quot;&gt;I&lt;/font&gt;&lt;/b&gt;" style="text;strokeColor=none;align=center;fillColor=none;html=1;verticalAlign=middle;whiteSpace=wrap;rounded=0;fontFamily=Architects Daughter;fontSource=https://fonts.googleapis.com/css?family=Architects+Daughter;aspect=fixed;" vertex="1" parent="Ng3zc3pQ8-nIIgDV_-j_-2">
          <mxGeometry x="5" y="10" width="40" height="30" as="geometry" />
        </mxCell>
        <mxCell id="Ng3zc3pQ8-nIIgDV_-j_-5" value="" style="group;" vertex="1" connectable="0" parent="Ng3zc3pQ8-nIIgDV_-j_-116">
          <mxGeometry x="130" y="70" width="240" height="50" as="geometry" />
        </mxCell>
        <mxCell id="Ng3zc3pQ8-nIIgDV_-j_-32" value="" style="group;aspect=fixed;" vertex="1" connectable="0" parent="Ng3zc3pQ8-nIIgDV_-j_-5">
          <mxGeometry x="30" width="210" height="50" as="geometry" />
        </mxCell>
        <mxCell id="Ng3zc3pQ8-nIIgDV_-j_-6" value="" style="rounded=0;whiteSpace=wrap;html=1;labelBackgroundColor=none;strokeColor=#0f100e;strokeWidth=2;align=center;verticalAlign=middle;fontFamily=Helvetica;fontSize=12;fontColor=default;fillColor=#d5e8d4;" vertex="1" parent="Ng3zc3pQ8-nIIgDV_-j_-32">
          <mxGeometry y="5" width="210" height="40" as="geometry" />
        </mxCell>
        <mxCell id="Ng3zc3pQ8-nIIgDV_-j_-7" value="&lt;font color=&quot;#000000&quot; face=&quot;Comic Sans MS&quot;&gt;&lt;span style=&quot;font-size: 15px;&quot;&gt;&lt;b&gt;int vector[10], vec2[10]&lt;/b&gt;&lt;/span&gt;&lt;/font&gt;" style="text;strokeColor=none;align=center;fillColor=none;html=1;verticalAlign=middle;whiteSpace=wrap;rounded=0;fontFamily=Architects Daughter;fontSource=https://fonts.googleapis.com/css?family=Architects+Daughter;" vertex="1" parent="Ng3zc3pQ8-nIIgDV_-j_-32">
          <mxGeometry x="10" width="190" height="50" as="geometry" />
        </mxCell>
        <mxCell id="Ng3zc3pQ8-nIIgDV_-j_-9" value="" style="group;" vertex="1" connectable="0" parent="Ng3zc3pQ8-nIIgDV_-j_-116">
          <mxGeometry x="102.5" y="130" width="325" height="70" as="geometry" />
        </mxCell>
        <mxCell id="Ng3zc3pQ8-nIIgDV_-j_-10" value="" style="rounded=0;whiteSpace=wrap;html=1;labelBackgroundColor=none;strokeColor=#0f100e;strokeWidth=2;align=center;verticalAlign=middle;fontFamily=Helvetica;fontSize=12;fontColor=default;fillColor=#d5e8d4;" vertex="1" parent="Ng3zc3pQ8-nIIgDV_-j_-9">
          <mxGeometry y="15" width="325" height="40" as="geometry" />
        </mxCell>
        <mxCell id="Ng3zc3pQ8-nIIgDV_-j_-11" value="&lt;font face=&quot;Comic Sans MS&quot; color=&quot;#000000&quot;&gt;&lt;span style=&quot;font-size: 15px;&quot;&gt;&lt;b&gt;int num, x = 0, max_abs = 0&lt;/b&gt;&lt;/span&gt;&lt;/font&gt;&lt;div&gt;&lt;font face=&quot;Comic Sans MS&quot; color=&quot;#000000&quot;&gt;&lt;span style=&quot;font-size: 15px;&quot;&gt;&lt;b&gt;int maximo_absoluto = 0&lt;/b&gt;&lt;/span&gt;&lt;/font&gt;&lt;/div&gt;" style="text;strokeColor=none;align=center;fillColor=none;html=1;verticalAlign=middle;whiteSpace=wrap;rounded=0;fontFamily=Architects Daughter;fontSource=https://fonts.googleapis.com/css?family=Architects+Daughter;" vertex="1" parent="Ng3zc3pQ8-nIIgDV_-j_-9">
          <mxGeometry x="3" width="320" height="70" as="geometry" />
        </mxCell>
        <mxCell id="Ng3zc3pQ8-nIIgDV_-j_-13" value="" style="group;aspect=fixed;" vertex="1" connectable="0" parent="Ng3zc3pQ8-nIIgDV_-j_-116">
          <mxGeometry x="60" y="230" width="322" height="250" as="geometry" />
        </mxCell>
        <mxCell id="Ng3zc3pQ8-nIIgDV_-j_-14" value="" style="whiteSpace=wrap;html=1;aspect=fixed;rounded=0;labelBackgroundColor=none;strokeColor=#000000;strokeWidth=2;align=center;verticalAlign=middle;fontFamily=Helvetica;fontSize=12;fontColor=default;fillColor=#d5e8d4;" vertex="1" parent="Ng3zc3pQ8-nIIgDV_-j_-13">
          <mxGeometry x="72" width="250" height="250" as="geometry" />
        </mxCell>
        <mxCell id="Ng3zc3pQ8-nIIgDV_-j_-15" value="" style="group;aspect=fixed;" vertex="1" connectable="0" parent="Ng3zc3pQ8-nIIgDV_-j_-13">
          <mxGeometry y="22" width="149" height="140" as="geometry" />
        </mxCell>
        <mxCell id="Ng3zc3pQ8-nIIgDV_-j_-16" value="" style="ellipse;whiteSpace=wrap;html=1;aspect=fixed;rounded=0;labelBackgroundColor=none;strokeColor=#0F140C;strokeWidth=3;align=center;verticalAlign=middle;fontFamily=Helvetica;fontSize=12;fontColor=default;fillColor=#d5e8d4;container=0;" vertex="1" parent="Ng3zc3pQ8-nIIgDV_-j_-15">
          <mxGeometry x="5" width="140" height="140" as="geometry" />
        </mxCell>
        <mxCell id="Ng3zc3pQ8-nIIgDV_-j_-17" value="" style="endArrow=none;html=1;rounded=0;strokeColor=#0F140C;fontFamily=Helvetica;fontSize=12;fontColor=default;fillColor=#B2C9AB;strokeWidth=2;" edge="1" parent="Ng3zc3pQ8-nIIgDV_-j_-15">
          <mxGeometry width="50" height="50" relative="1" as="geometry">
            <mxPoint x="139.4" y="39.19999999999999" as="sourcePoint" />
            <mxPoint x="10.600000000000001" y="39.19999999999999" as="targetPoint" />
          </mxGeometry>
        </mxCell>
        <mxCell id="Ng3zc3pQ8-nIIgDV_-j_-18" value="" style="endArrow=none;html=1;rounded=0;strokeColor=#0F140C;fontFamily=Helvetica;fontSize=12;fontColor=default;fillColor=#B2C9AB;exitX=0.264;exitY=0.952;exitDx=0;exitDy=0;exitPerimeter=0;strokeWidth=2;" edge="1" parent="Ng3zc3pQ8-nIIgDV_-j_-15" source="Ng3zc3pQ8-nIIgDV_-j_-16">
          <mxGeometry width="50" height="50" relative="1" as="geometry">
            <mxPoint x="38.6" y="84" as="sourcePoint" />
            <mxPoint x="44.2" y="39.19999999999999" as="targetPoint" />
          </mxGeometry>
        </mxCell>
        <mxCell id="Ng3zc3pQ8-nIIgDV_-j_-19" value="" style="endArrow=none;html=1;rounded=0;strokeColor=#0F140C;fontFamily=Helvetica;fontSize=12;fontColor=default;fillColor=#B2C9AB;exitX=0.728;exitY=0.948;exitDx=0;exitDy=0;exitPerimeter=0;strokeWidth=2;" edge="1" parent="Ng3zc3pQ8-nIIgDV_-j_-15" source="Ng3zc3pQ8-nIIgDV_-j_-16">
          <mxGeometry width="50" height="50" relative="1" as="geometry">
            <mxPoint x="89.00000000000001" y="95.20000000000005" as="sourcePoint" />
            <mxPoint x="106.92000000000002" y="39.19999999999999" as="targetPoint" />
          </mxGeometry>
        </mxCell>
        <mxCell id="Ng3zc3pQ8-nIIgDV_-j_-20" value="&lt;font face=&quot;Comic Sans MS&quot; color=&quot;#000000&quot;&gt;&lt;span style=&quot;font-size: 13px;&quot;&gt;&lt;b&gt;x&lt;/b&gt;&lt;/span&gt;&lt;/font&gt;" style="text;strokeColor=none;align=center;fillColor=none;html=1;verticalAlign=middle;whiteSpace=wrap;rounded=0;fontFamily=Architects Daughter;fontSource=https://fonts.googleapis.com/css?family=Architects+Daughter;container=0;" vertex="1" parent="Ng3zc3pQ8-nIIgDV_-j_-15">
          <mxGeometry x="48" y="10" width="50" height="30" as="geometry" />
        </mxCell>
        <mxCell id="Ng3zc3pQ8-nIIgDV_-j_-21" value="&lt;font color=&quot;#000000&quot; size=&quot;1&quot; face=&quot;Comic Sans MS&quot;&gt;&lt;b style=&quot;font-size: 13px;&quot;&gt;x++&lt;/b&gt;&lt;/font&gt;" style="text;strokeColor=none;align=center;fillColor=none;html=1;verticalAlign=middle;whiteSpace=wrap;rounded=0;fontFamily=Architects Daughter;fontSource=https://fonts.googleapis.com/css?family=Architects+Daughter;container=0;" vertex="1" parent="Ng3zc3pQ8-nIIgDV_-j_-15">
          <mxGeometry x="99" y="63" width="50" height="30" as="geometry" />
        </mxCell>
        <mxCell id="Ng3zc3pQ8-nIIgDV_-j_-22" value="&lt;font color=&quot;#000000&quot; size=&quot;1&quot; face=&quot;Comic Sans MS&quot;&gt;&lt;b style=&quot;font-size: 13px;&quot;&gt;x &amp;lt; 10&lt;/b&gt;&lt;/font&gt;" style="text;strokeColor=none;align=center;fillColor=none;html=1;verticalAlign=middle;whiteSpace=wrap;rounded=0;fontFamily=Architects Daughter;fontSource=https://fonts.googleapis.com/css?family=Architects+Daughter;container=0;" vertex="1" parent="Ng3zc3pQ8-nIIgDV_-j_-15">
          <mxGeometry x="44" y="63" width="60" height="30" as="geometry" />
        </mxCell>
        <mxCell id="Ng3zc3pQ8-nIIgDV_-j_-23" value="&lt;font color=&quot;#000000&quot; size=&quot;1&quot; face=&quot;Comic Sans MS&quot;&gt;&lt;b style=&quot;font-size: 13px;&quot;&gt;x = 0&lt;/b&gt;&lt;/font&gt;" style="text;strokeColor=none;align=center;fillColor=none;html=1;verticalAlign=middle;whiteSpace=wrap;rounded=0;fontFamily=Architects Daughter;fontSource=https://fonts.googleapis.com/css?family=Architects+Daughter;container=0;" vertex="1" parent="Ng3zc3pQ8-nIIgDV_-j_-15">
          <mxGeometry y="63" width="50" height="30" as="geometry" />
        </mxCell>
        <mxCell id="Ng3zc3pQ8-nIIgDV_-j_-24" value="" style="group;aspect=fixed;" vertex="1" connectable="0" parent="Ng3zc3pQ8-nIIgDV_-j_-13">
          <mxGeometry x="167" y="67" width="120" height="40" as="geometry" />
        </mxCell>
        <mxCell id="Ng3zc3pQ8-nIIgDV_-j_-25" value="" style="shape=trapezoid;perimeter=trapezoidPerimeter;whiteSpace=wrap;html=1;fixedSize=1;rounded=0;labelBackgroundColor=none;strokeColor=#121211;strokeWidth=2;align=center;verticalAlign=middle;fontFamily=Helvetica;fontSize=12;fontColor=default;fillColor=#d5e8d4;direction=west;container=0;" vertex="1" parent="Ng3zc3pQ8-nIIgDV_-j_-24">
          <mxGeometry width="120" height="40" as="geometry">
            <mxRectangle x="-1020" y="-650" width="50" height="40" as="alternateBounds" />
          </mxGeometry>
        </mxCell>
        <mxCell id="Ng3zc3pQ8-nIIgDV_-j_-26" value="&lt;font size=&quot;1&quot; face=&quot;Comic Sans MS&quot; color=&quot;#000000&quot;&gt;&lt;b style=&quot;font-size: 16px;&quot;&gt;num&lt;/b&gt;&lt;/font&gt;" style="text;strokeColor=none;align=center;fillColor=none;html=1;verticalAlign=middle;whiteSpace=wrap;rounded=0;fontFamily=Architects Daughter;fontSource=https://fonts.googleapis.com/css?family=Architects+Daughter;container=0;" vertex="1" parent="Ng3zc3pQ8-nIIgDV_-j_-24">
          <mxGeometry x="20" y="5" width="80" height="30" as="geometry" />
        </mxCell>
        <mxCell id="Ng3zc3pQ8-nIIgDV_-j_-27" value="" style="group;aspect=fixed;" vertex="1" connectable="0" parent="Ng3zc3pQ8-nIIgDV_-j_-13">
          <mxGeometry x="137" y="138" width="180" height="40" as="geometry" />
        </mxCell>
        <mxCell id="Ng3zc3pQ8-nIIgDV_-j_-28" value="" style="rounded=0;whiteSpace=wrap;html=1;labelBackgroundColor=none;strokeColor=#0f100e;strokeWidth=2;align=center;verticalAlign=middle;fontFamily=Helvetica;fontSize=12;fontColor=default;fillColor=#d5e8d4;" vertex="1" parent="Ng3zc3pQ8-nIIgDV_-j_-27">
          <mxGeometry x="9" width="160" height="40" as="geometry" />
        </mxCell>
        <mxCell id="Ng3zc3pQ8-nIIgDV_-j_-29" value="&lt;font size=&quot;1&quot; face=&quot;Comic Sans MS&quot; color=&quot;#000000&quot;&gt;&lt;b style=&quot;font-size: 16px;&quot;&gt;vector[10] = num&lt;/b&gt;&lt;/font&gt;" style="text;strokeColor=none;align=center;fillColor=none;html=1;verticalAlign=middle;whiteSpace=wrap;rounded=0;fontFamily=Architects Daughter;fontSource=https://fonts.googleapis.com/css?family=Architects+Daughter;" vertex="1" parent="Ng3zc3pQ8-nIIgDV_-j_-27">
          <mxGeometry y="6" width="180" height="30" as="geometry" />
        </mxCell>
        <mxCell id="Ng3zc3pQ8-nIIgDV_-j_-30" value="" style="line;strokeWidth=2;direction=south;html=1;hachureGap=4;fontFamily=Architects Daughter;fontSource=https://fonts.googleapis.com/css?family=Architects+Daughter;strokeColor=#000000;" vertex="1" parent="Ng3zc3pQ8-nIIgDV_-j_-13">
          <mxGeometry x="219" y="108" width="10" height="30" as="geometry" />
        </mxCell>
        <mxCell id="Ng3zc3pQ8-nIIgDV_-j_-31" value="" style="line;strokeWidth=2;direction=south;html=1;hachureGap=4;fontFamily=Architects Daughter;fontSource=https://fonts.googleapis.com/css?family=Architects+Daughter;strokeColor=#000000;" vertex="1" parent="Ng3zc3pQ8-nIIgDV_-j_-116">
          <mxGeometry x="260" y="182" width="10" height="50" as="geometry" />
        </mxCell>
        <mxCell id="Ng3zc3pQ8-nIIgDV_-j_-8" value="" style="line;strokeWidth=2;direction=south;html=1;hachureGap=4;fontFamily=Architects Daughter;fontSource=https://fonts.googleapis.com/css?family=Architects+Daughter;strokeColor=#000000;" vertex="1" parent="Ng3zc3pQ8-nIIgDV_-j_-116">
          <mxGeometry x="260" y="50" width="10" height="30" as="geometry" />
        </mxCell>
        <mxCell id="Ng3zc3pQ8-nIIgDV_-j_-12" value="" style="line;strokeWidth=2;direction=south;html=1;hachureGap=4;fontFamily=Architects Daughter;fontSource=https://fonts.googleapis.com/css?family=Architects+Daughter;strokeColor=#000000;" vertex="1" parent="Ng3zc3pQ8-nIIgDV_-j_-116">
          <mxGeometry x="260" y="113" width="10" height="36" as="geometry" />
        </mxCell>
        <mxCell id="Ng3zc3pQ8-nIIgDV_-j_-33" value="" style="group;aspect=fixed;" vertex="1" connectable="0" parent="Ng3zc3pQ8-nIIgDV_-j_-116">
          <mxGeometry x="225" y="1670" width="50" height="50" as="geometry" />
        </mxCell>
        <mxCell id="Ng3zc3pQ8-nIIgDV_-j_-34" value="" style="strokeWidth=2;html=1;shape=mxgraph.flowchart.start_2;whiteSpace=wrap;rounded=0;labelBackgroundColor=none;strokeColor=#000000;align=center;verticalAlign=middle;fontFamily=Helvetica;fontSize=12;fontColor=default;fillColor=#d5e8d4;" vertex="1" parent="Ng3zc3pQ8-nIIgDV_-j_-33">
          <mxGeometry width="50" height="50" as="geometry" />
        </mxCell>
        <mxCell id="Ng3zc3pQ8-nIIgDV_-j_-35" value="&lt;b&gt;&lt;font color=&quot;#000000&quot; style=&quot;font-size: 19px;&quot; face=&quot;Comic Sans MS&quot;&gt;F&lt;/font&gt;&lt;/b&gt;" style="text;strokeColor=none;align=center;fillColor=none;html=1;verticalAlign=middle;whiteSpace=wrap;rounded=0;fontFamily=Architects Daughter;fontSource=https://fonts.googleapis.com/css?family=Architects+Daughter;" vertex="1" parent="Ng3zc3pQ8-nIIgDV_-j_-33">
          <mxGeometry x="5" y="10" width="40" height="30" as="geometry" />
        </mxCell>
        <mxCell id="Ng3zc3pQ8-nIIgDV_-j_-114" value="" style="line;strokeWidth=2;direction=south;html=1;hachureGap=4;fontFamily=Architects Daughter;fontSource=https://fonts.googleapis.com/css?family=Architects+Daughter;strokeColor=#000000;" vertex="1" parent="Ng3zc3pQ8-nIIgDV_-j_-33">
          <mxGeometry x="20" y="-31" width="10" height="31" as="geometry" />
        </mxCell>
        <mxCell id="Ng3zc3pQ8-nIIgDV_-j_-36" value="" style="group;aspect=fixed;" vertex="1" connectable="0" parent="Ng3zc3pQ8-nIIgDV_-j_-116">
          <mxGeometry x="60" y="520" width="322" height="250" as="geometry" />
        </mxCell>
        <mxCell id="Ng3zc3pQ8-nIIgDV_-j_-37" value="" style="whiteSpace=wrap;html=1;aspect=fixed;rounded=0;labelBackgroundColor=none;strokeColor=#000000;strokeWidth=2;align=center;verticalAlign=middle;fontFamily=Helvetica;fontSize=12;fontColor=default;fillColor=#d5e8d4;" vertex="1" parent="Ng3zc3pQ8-nIIgDV_-j_-36">
          <mxGeometry x="72" width="250" height="250" as="geometry" />
        </mxCell>
        <mxCell id="Ng3zc3pQ8-nIIgDV_-j_-38" value="" style="group;aspect=fixed;" vertex="1" connectable="0" parent="Ng3zc3pQ8-nIIgDV_-j_-36">
          <mxGeometry y="22" width="149" height="140" as="geometry" />
        </mxCell>
        <mxCell id="Ng3zc3pQ8-nIIgDV_-j_-39" value="" style="ellipse;whiteSpace=wrap;html=1;aspect=fixed;rounded=0;labelBackgroundColor=none;strokeColor=#0F140C;strokeWidth=3;align=center;verticalAlign=middle;fontFamily=Helvetica;fontSize=12;fontColor=default;fillColor=#d5e8d4;container=0;" vertex="1" parent="Ng3zc3pQ8-nIIgDV_-j_-38">
          <mxGeometry x="5" width="140" height="140" as="geometry" />
        </mxCell>
        <mxCell id="Ng3zc3pQ8-nIIgDV_-j_-40" value="" style="endArrow=none;html=1;rounded=0;strokeColor=#0F140C;fontFamily=Helvetica;fontSize=12;fontColor=default;fillColor=#B2C9AB;strokeWidth=2;" edge="1" parent="Ng3zc3pQ8-nIIgDV_-j_-38">
          <mxGeometry width="50" height="50" relative="1" as="geometry">
            <mxPoint x="139.4" y="39.19999999999999" as="sourcePoint" />
            <mxPoint x="10.600000000000001" y="39.19999999999999" as="targetPoint" />
          </mxGeometry>
        </mxCell>
        <mxCell id="Ng3zc3pQ8-nIIgDV_-j_-41" value="" style="endArrow=none;html=1;rounded=0;strokeColor=#0F140C;fontFamily=Helvetica;fontSize=12;fontColor=default;fillColor=#B2C9AB;exitX=0.264;exitY=0.952;exitDx=0;exitDy=0;exitPerimeter=0;strokeWidth=2;" edge="1" parent="Ng3zc3pQ8-nIIgDV_-j_-38" source="Ng3zc3pQ8-nIIgDV_-j_-39">
          <mxGeometry width="50" height="50" relative="1" as="geometry">
            <mxPoint x="38.6" y="84" as="sourcePoint" />
            <mxPoint x="44.2" y="39.19999999999999" as="targetPoint" />
          </mxGeometry>
        </mxCell>
        <mxCell id="Ng3zc3pQ8-nIIgDV_-j_-42" value="" style="endArrow=none;html=1;rounded=0;strokeColor=#0F140C;fontFamily=Helvetica;fontSize=12;fontColor=default;fillColor=#B2C9AB;exitX=0.728;exitY=0.948;exitDx=0;exitDy=0;exitPerimeter=0;strokeWidth=2;" edge="1" parent="Ng3zc3pQ8-nIIgDV_-j_-38" source="Ng3zc3pQ8-nIIgDV_-j_-39">
          <mxGeometry width="50" height="50" relative="1" as="geometry">
            <mxPoint x="89.00000000000001" y="95.20000000000005" as="sourcePoint" />
            <mxPoint x="106.92000000000002" y="39.19999999999999" as="targetPoint" />
          </mxGeometry>
        </mxCell>
        <mxCell id="Ng3zc3pQ8-nIIgDV_-j_-43" value="&lt;font face=&quot;Comic Sans MS&quot; color=&quot;#000000&quot;&gt;&lt;span style=&quot;font-size: 13px;&quot;&gt;&lt;b&gt;x&lt;/b&gt;&lt;/span&gt;&lt;/font&gt;" style="text;strokeColor=none;align=center;fillColor=none;html=1;verticalAlign=middle;whiteSpace=wrap;rounded=0;fontFamily=Architects Daughter;fontSource=https://fonts.googleapis.com/css?family=Architects+Daughter;container=0;" vertex="1" parent="Ng3zc3pQ8-nIIgDV_-j_-38">
          <mxGeometry x="48" y="10" width="50" height="30" as="geometry" />
        </mxCell>
        <mxCell id="Ng3zc3pQ8-nIIgDV_-j_-44" value="&lt;font color=&quot;#000000&quot; size=&quot;1&quot; face=&quot;Comic Sans MS&quot;&gt;&lt;b style=&quot;font-size: 13px;&quot;&gt;x++&lt;/b&gt;&lt;/font&gt;" style="text;strokeColor=none;align=center;fillColor=none;html=1;verticalAlign=middle;whiteSpace=wrap;rounded=0;fontFamily=Architects Daughter;fontSource=https://fonts.googleapis.com/css?family=Architects+Daughter;container=0;" vertex="1" parent="Ng3zc3pQ8-nIIgDV_-j_-38">
          <mxGeometry x="99" y="63" width="50" height="30" as="geometry" />
        </mxCell>
        <mxCell id="Ng3zc3pQ8-nIIgDV_-j_-45" value="&lt;font color=&quot;#000000&quot; size=&quot;1&quot; face=&quot;Comic Sans MS&quot;&gt;&lt;b style=&quot;font-size: 13px;&quot;&gt;x &amp;lt; 10&lt;/b&gt;&lt;/font&gt;" style="text;strokeColor=none;align=center;fillColor=none;html=1;verticalAlign=middle;whiteSpace=wrap;rounded=0;fontFamily=Architects Daughter;fontSource=https://fonts.googleapis.com/css?family=Architects+Daughter;container=0;" vertex="1" parent="Ng3zc3pQ8-nIIgDV_-j_-38">
          <mxGeometry x="44" y="63" width="60" height="30" as="geometry" />
        </mxCell>
        <mxCell id="Ng3zc3pQ8-nIIgDV_-j_-46" value="&lt;font color=&quot;#000000&quot; size=&quot;1&quot; face=&quot;Comic Sans MS&quot;&gt;&lt;b style=&quot;font-size: 13px;&quot;&gt;x = 0&lt;/b&gt;&lt;/font&gt;" style="text;strokeColor=none;align=center;fillColor=none;html=1;verticalAlign=middle;whiteSpace=wrap;rounded=0;fontFamily=Architects Daughter;fontSource=https://fonts.googleapis.com/css?family=Architects+Daughter;container=0;" vertex="1" parent="Ng3zc3pQ8-nIIgDV_-j_-38">
          <mxGeometry y="63" width="50" height="30" as="geometry" />
        </mxCell>
        <mxCell id="Ng3zc3pQ8-nIIgDV_-j_-50" value="" style="group;aspect=fixed;" vertex="1" connectable="0" parent="Ng3zc3pQ8-nIIgDV_-j_-36">
          <mxGeometry x="142" y="105" width="180" height="40" as="geometry" />
        </mxCell>
        <mxCell id="Ng3zc3pQ8-nIIgDV_-j_-51" value="" style="rounded=0;whiteSpace=wrap;html=1;labelBackgroundColor=none;strokeColor=#0f100e;strokeWidth=2;align=center;verticalAlign=middle;fontFamily=Helvetica;fontSize=12;fontColor=default;fillColor=#d5e8d4;aspect=fixed;container=1;" vertex="1" parent="Ng3zc3pQ8-nIIgDV_-j_-50">
          <mxGeometry x="9" width="160" height="40" as="geometry" />
        </mxCell>
        <mxCell id="Ng3zc3pQ8-nIIgDV_-j_-56" value="&lt;font size=&quot;1&quot; face=&quot;Comic Sans MS&quot; color=&quot;#000000&quot;&gt;&lt;b style=&quot;font-size: 16px;&quot;&gt;vec2[x] = vector[x]&lt;/b&gt;&lt;/font&gt;" style="text;strokeColor=none;align=center;fillColor=none;html=1;verticalAlign=middle;whiteSpace=wrap;rounded=0;fontFamily=Architects Daughter;fontSource=https://fonts.googleapis.com/css?family=Architects+Daughter;" vertex="1" parent="Ng3zc3pQ8-nIIgDV_-j_-50">
          <mxGeometry y="5" width="180" height="30" as="geometry" />
        </mxCell>
        <mxCell id="Ng3zc3pQ8-nIIgDV_-j_-53" value="" style="line;strokeWidth=2;direction=south;html=1;hachureGap=4;fontFamily=Architects Daughter;fontSource=https://fonts.googleapis.com/css?family=Architects+Daughter;strokeColor=#000000;" vertex="1" parent="Ng3zc3pQ8-nIIgDV_-j_-36">
          <mxGeometry x="194" y="-40" width="10" height="40" as="geometry" />
        </mxCell>
        <mxCell id="Ng3zc3pQ8-nIIgDV_-j_-57" value="" style="group;aspect=fixed;" vertex="1" connectable="0" parent="Ng3zc3pQ8-nIIgDV_-j_-116">
          <mxGeometry y="820" width="439.28" height="350" as="geometry" />
        </mxCell>
        <mxCell id="Ng3zc3pQ8-nIIgDV_-j_-58" value="" style="whiteSpace=wrap;html=1;aspect=fixed;rounded=0;labelBackgroundColor=none;strokeColor=#000000;strokeWidth=2;align=center;verticalAlign=middle;fontFamily=Helvetica;fontSize=12;fontColor=default;fillColor=#d5e8d4;" vertex="1" parent="Ng3zc3pQ8-nIIgDV_-j_-57">
          <mxGeometry x="80" width="350" height="350" as="geometry" />
        </mxCell>
        <mxCell id="Ng3zc3pQ8-nIIgDV_-j_-59" value="" style="group;aspect=fixed;" vertex="1" connectable="0" parent="Ng3zc3pQ8-nIIgDV_-j_-57">
          <mxGeometry x="-9.36" y="27.28" width="184.76" height="173.6" as="geometry" />
        </mxCell>
        <mxCell id="Ng3zc3pQ8-nIIgDV_-j_-60" value="" style="ellipse;whiteSpace=wrap;html=1;aspect=fixed;rounded=0;labelBackgroundColor=none;strokeColor=#0F140C;strokeWidth=3;align=center;verticalAlign=middle;fontFamily=Helvetica;fontSize=12;fontColor=default;fillColor=#d5e8d4;container=0;" vertex="1" parent="Ng3zc3pQ8-nIIgDV_-j_-59">
          <mxGeometry x="6.2" width="173.6" height="173.6" as="geometry" />
        </mxCell>
        <mxCell id="Ng3zc3pQ8-nIIgDV_-j_-61" value="" style="endArrow=none;html=1;rounded=0;strokeColor=#0F140C;fontFamily=Helvetica;fontSize=12;fontColor=default;fillColor=#B2C9AB;strokeWidth=2;" edge="1" parent="Ng3zc3pQ8-nIIgDV_-j_-59">
          <mxGeometry width="50" height="50" relative="1" as="geometry">
            <mxPoint x="172.856" y="48.60799999999998" as="sourcePoint" />
            <mxPoint x="13.144000000000002" y="48.60799999999998" as="targetPoint" />
          </mxGeometry>
        </mxCell>
        <mxCell id="Ng3zc3pQ8-nIIgDV_-j_-62" value="" style="endArrow=none;html=1;rounded=0;strokeColor=#0F140C;fontFamily=Helvetica;fontSize=12;fontColor=default;fillColor=#B2C9AB;exitX=0.264;exitY=0.952;exitDx=0;exitDy=0;exitPerimeter=0;strokeWidth=2;" edge="1" parent="Ng3zc3pQ8-nIIgDV_-j_-59" source="Ng3zc3pQ8-nIIgDV_-j_-60">
          <mxGeometry width="50" height="50" relative="1" as="geometry">
            <mxPoint x="47.864000000000004" y="104.16" as="sourcePoint" />
            <mxPoint x="54.808" y="48.60799999999998" as="targetPoint" />
          </mxGeometry>
        </mxCell>
        <mxCell id="Ng3zc3pQ8-nIIgDV_-j_-63" value="" style="endArrow=none;html=1;rounded=0;strokeColor=#0F140C;fontFamily=Helvetica;fontSize=12;fontColor=default;fillColor=#B2C9AB;exitX=0.728;exitY=0.948;exitDx=0;exitDy=0;exitPerimeter=0;strokeWidth=2;" edge="1" parent="Ng3zc3pQ8-nIIgDV_-j_-59" source="Ng3zc3pQ8-nIIgDV_-j_-60">
          <mxGeometry width="50" height="50" relative="1" as="geometry">
            <mxPoint x="110.36000000000001" y="118.04800000000006" as="sourcePoint" />
            <mxPoint x="132.5808" y="48.60799999999998" as="targetPoint" />
          </mxGeometry>
        </mxCell>
        <mxCell id="Ng3zc3pQ8-nIIgDV_-j_-64" value="&lt;font face=&quot;Comic Sans MS&quot; color=&quot;#000000&quot;&gt;&lt;span style=&quot;font-size: 13px;&quot;&gt;&lt;b&gt;x&lt;/b&gt;&lt;/span&gt;&lt;/font&gt;" style="text;strokeColor=none;align=center;fillColor=none;html=1;verticalAlign=middle;whiteSpace=wrap;rounded=0;fontFamily=Architects Daughter;fontSource=https://fonts.googleapis.com/css?family=Architects+Daughter;container=0;" vertex="1" parent="Ng3zc3pQ8-nIIgDV_-j_-59">
          <mxGeometry x="59.519999999999996" y="12.4" width="62" height="37.2" as="geometry" />
        </mxCell>
        <mxCell id="Ng3zc3pQ8-nIIgDV_-j_-65" value="&lt;font color=&quot;#000000&quot; size=&quot;1&quot; face=&quot;Comic Sans MS&quot;&gt;&lt;b style=&quot;font-size: 13px;&quot;&gt;x++&lt;/b&gt;&lt;/font&gt;" style="text;strokeColor=none;align=center;fillColor=none;html=1;verticalAlign=middle;whiteSpace=wrap;rounded=0;fontFamily=Architects Daughter;fontSource=https://fonts.googleapis.com/css?family=Architects+Daughter;container=0;" vertex="1" parent="Ng3zc3pQ8-nIIgDV_-j_-59">
          <mxGeometry x="122.76" y="78.12" width="62" height="37.2" as="geometry" />
        </mxCell>
        <mxCell id="Ng3zc3pQ8-nIIgDV_-j_-66" value="&lt;font color=&quot;#000000&quot; size=&quot;1&quot; face=&quot;Comic Sans MS&quot;&gt;&lt;b style=&quot;font-size: 13px;&quot;&gt;x &amp;lt; 10&lt;/b&gt;&lt;/font&gt;" style="text;strokeColor=none;align=center;fillColor=none;html=1;verticalAlign=middle;whiteSpace=wrap;rounded=0;fontFamily=Architects Daughter;fontSource=https://fonts.googleapis.com/css?family=Architects+Daughter;container=0;" vertex="1" parent="Ng3zc3pQ8-nIIgDV_-j_-59">
          <mxGeometry x="54.56" y="78.12" width="74.4" height="37.2" as="geometry" />
        </mxCell>
        <mxCell id="Ng3zc3pQ8-nIIgDV_-j_-67" value="&lt;font color=&quot;#000000&quot; size=&quot;1&quot; face=&quot;Comic Sans MS&quot;&gt;&lt;b style=&quot;font-size: 13px;&quot;&gt;x = 0&lt;/b&gt;&lt;/font&gt;" style="text;strokeColor=none;align=center;fillColor=none;html=1;verticalAlign=middle;whiteSpace=wrap;rounded=0;fontFamily=Architects Daughter;fontSource=https://fonts.googleapis.com/css?family=Architects+Daughter;container=0;" vertex="1" parent="Ng3zc3pQ8-nIIgDV_-j_-59">
          <mxGeometry y="78.12" width="62" height="37.2" as="geometry" />
        </mxCell>
        <mxCell id="Ng3zc3pQ8-nIIgDV_-j_-68" value="" style="group;aspect=fixed;" vertex="1" connectable="0" parent="Ng3zc3pQ8-nIIgDV_-j_-57">
          <mxGeometry x="237.64" y="38" width="131" height="130" as="geometry" />
        </mxCell>
        <mxCell id="Ng3zc3pQ8-nIIgDV_-j_-69" value="" style="rhombus;whiteSpace=wrap;html=1;rounded=0;labelBackgroundColor=none;strokeColor=#0F140C;strokeWidth=2;align=center;verticalAlign=middle;fontFamily=Helvetica;fontSize=12;fontColor=default;fillColor=#d5e8d4;" vertex="1" parent="Ng3zc3pQ8-nIIgDV_-j_-68">
          <mxGeometry width="130" height="130" as="geometry" />
        </mxCell>
        <mxCell id="Ng3zc3pQ8-nIIgDV_-j_-70" value="&lt;font size=&quot;1&quot; face=&quot;Comic Sans MS&quot; color=&quot;#000000&quot;&gt;&lt;b style=&quot;font-size: 16px;&quot;&gt;vector[x]&lt;/b&gt;&lt;/font&gt;&lt;div&gt;&lt;font face=&quot;Comic Sans MS&quot; color=&quot;#000000&quot;&gt;&lt;span style=&quot;font-size: 16px;&quot;&gt;&lt;b&gt;&amp;lt;&lt;/b&gt;&lt;/span&gt;&lt;/font&gt;&lt;/div&gt;&lt;div&gt;&lt;font size=&quot;1&quot; face=&quot;Comic Sans MS&quot; color=&quot;#000000&quot;&gt;&lt;b style=&quot;font-size: 16px;&quot;&gt;0&lt;/b&gt;&lt;/font&gt;&lt;/div&gt;" style="text;strokeColor=none;align=center;fillColor=none;html=1;verticalAlign=middle;whiteSpace=wrap;rounded=0;fontFamily=Architects Daughter;fontSource=https://fonts.googleapis.com/css?family=Architects+Daughter;" vertex="1" parent="Ng3zc3pQ8-nIIgDV_-j_-68">
          <mxGeometry x="1" y="31" width="130" height="70" as="geometry" />
        </mxCell>
        <mxCell id="Ng3zc3pQ8-nIIgDV_-j_-71" value="" style="line;strokeWidth=2;html=1;perimeter=backbonePerimeter;points=[];outlineConnect=0;hachureGap=4;fontFamily=Architects Daughter;fontSource=https://fonts.googleapis.com/css?family=Architects+Daughter;strokeColor=#000000;" vertex="1" parent="Ng3zc3pQ8-nIIgDV_-j_-57">
          <mxGeometry x="210" y="98" width="27.64" height="10" as="geometry" />
        </mxCell>
        <mxCell id="Ng3zc3pQ8-nIIgDV_-j_-72" value="" style="line;strokeWidth=2;html=1;perimeter=backbonePerimeter;points=[];outlineConnect=0;hachureGap=4;fontFamily=Architects Daughter;fontSource=https://fonts.googleapis.com/css?family=Architects+Daughter;strokeColor=#000000;" vertex="1" parent="Ng3zc3pQ8-nIIgDV_-j_-57">
          <mxGeometry x="365.64" y="98" width="34.36" height="10" as="geometry" />
        </mxCell>
        <mxCell id="Ng3zc3pQ8-nIIgDV_-j_-73" value="" style="line;strokeWidth=2;direction=south;html=1;hachureGap=4;fontFamily=Architects Daughter;fontSource=https://fonts.googleapis.com/css?family=Architects+Daughter;strokeColor=#000000;" vertex="1" parent="Ng3zc3pQ8-nIIgDV_-j_-57">
          <mxGeometry x="207" y="103" width="10" height="97" as="geometry" />
        </mxCell>
        <mxCell id="Ng3zc3pQ8-nIIgDV_-j_-74" value="" style="line;strokeWidth=2;direction=south;html=1;hachureGap=4;fontFamily=Architects Daughter;fontSource=https://fonts.googleapis.com/css?family=Architects+Daughter;strokeColor=#000000;" vertex="1" parent="Ng3zc3pQ8-nIIgDV_-j_-57">
          <mxGeometry x="394" y="104" width="10" height="176" as="geometry" />
        </mxCell>
        <mxCell id="Ng3zc3pQ8-nIIgDV_-j_-75" value="" style="line;strokeWidth=2;direction=south;html=1;hachureGap=4;fontFamily=Architects Daughter;fontSource=https://fonts.googleapis.com/css?family=Architects+Daughter;strokeColor=#000000;" vertex="1" parent="Ng3zc3pQ8-nIIgDV_-j_-57">
          <mxGeometry x="210" y="240" width="10" height="40" as="geometry" />
        </mxCell>
        <mxCell id="Ng3zc3pQ8-nIIgDV_-j_-76" value="" style="line;strokeWidth=2;html=1;perimeter=backbonePerimeter;points=[];outlineConnect=0;hachureGap=4;fontFamily=Architects Daughter;fontSource=https://fonts.googleapis.com/css?family=Architects+Daughter;strokeColor=#000000;" vertex="1" parent="Ng3zc3pQ8-nIIgDV_-j_-57">
          <mxGeometry x="215" y="275" width="185" height="10" as="geometry" />
        </mxCell>
        <mxCell id="Ng3zc3pQ8-nIIgDV_-j_-104" value="" style="group;aspect=fixed;" vertex="1" connectable="0" parent="Ng3zc3pQ8-nIIgDV_-j_-57">
          <mxGeometry x="107.0142236842106" y="200.87999999999988" width="215.9657763157894" height="40" as="geometry" />
        </mxCell>
        <mxCell id="Ng3zc3pQ8-nIIgDV_-j_-78" value="" style="rounded=0;whiteSpace=wrap;html=1;labelBackgroundColor=none;strokeColor=#0f100e;strokeWidth=2;align=center;verticalAlign=middle;fontFamily=Helvetica;fontSize=12;fontColor=default;fillColor=#d5e8d4;container=0;" vertex="1" parent="Ng3zc3pQ8-nIIgDV_-j_-104">
          <mxGeometry y="3.1800000000000637" width="214.62967105263155" height="34.8235294117647" as="geometry" />
        </mxCell>
        <mxCell id="Ng3zc3pQ8-nIIgDV_-j_-79" value="&lt;font face=&quot;Comic Sans MS&quot; color=&quot;#000000&quot;&gt;&lt;span style=&quot;font-size: 15px;&quot;&gt;&lt;b&gt;vector[x] = vector[x] * - 1&lt;/b&gt;&lt;/span&gt;&lt;/font&gt;" style="text;strokeColor=none;align=center;fillColor=none;html=1;verticalAlign=middle;whiteSpace=wrap;rounded=0;fontFamily=Architects Daughter;fontSource=https://fonts.googleapis.com/css?family=Architects+Daughter;container=0;" vertex="1" parent="Ng3zc3pQ8-nIIgDV_-j_-104">
          <mxGeometry x="2.095776315789408" width="213.87" height="40" as="geometry" />
        </mxCell>
        <mxCell id="Ng3zc3pQ8-nIIgDV_-j_-80" value="" style="group;aspect=fixed;" vertex="1" connectable="0" parent="Ng3zc3pQ8-nIIgDV_-j_-116">
          <mxGeometry y="1220" width="439.28" height="350" as="geometry" />
        </mxCell>
        <mxCell id="Ng3zc3pQ8-nIIgDV_-j_-81" value="" style="whiteSpace=wrap;html=1;aspect=fixed;rounded=0;labelBackgroundColor=none;strokeColor=#000000;strokeWidth=2;align=center;verticalAlign=middle;fontFamily=Helvetica;fontSize=12;fontColor=default;fillColor=#d5e8d4;" vertex="1" parent="Ng3zc3pQ8-nIIgDV_-j_-80">
          <mxGeometry x="80" width="350" height="350" as="geometry" />
        </mxCell>
        <mxCell id="Ng3zc3pQ8-nIIgDV_-j_-82" value="" style="group;aspect=fixed;" vertex="1" connectable="0" parent="Ng3zc3pQ8-nIIgDV_-j_-80">
          <mxGeometry x="-9.36" y="27.28" width="184.76" height="173.6" as="geometry" />
        </mxCell>
        <mxCell id="Ng3zc3pQ8-nIIgDV_-j_-83" value="" style="ellipse;whiteSpace=wrap;html=1;aspect=fixed;rounded=0;labelBackgroundColor=none;strokeColor=#0F140C;strokeWidth=3;align=center;verticalAlign=middle;fontFamily=Helvetica;fontSize=12;fontColor=default;fillColor=#d5e8d4;container=0;" vertex="1" parent="Ng3zc3pQ8-nIIgDV_-j_-82">
          <mxGeometry x="6.2" width="173.6" height="173.6" as="geometry" />
        </mxCell>
        <mxCell id="Ng3zc3pQ8-nIIgDV_-j_-84" value="" style="endArrow=none;html=1;rounded=0;strokeColor=#0F140C;fontFamily=Helvetica;fontSize=12;fontColor=default;fillColor=#B2C9AB;strokeWidth=2;" edge="1" parent="Ng3zc3pQ8-nIIgDV_-j_-82">
          <mxGeometry width="50" height="50" relative="1" as="geometry">
            <mxPoint x="172.856" y="48.60799999999998" as="sourcePoint" />
            <mxPoint x="13.144000000000002" y="48.60799999999998" as="targetPoint" />
          </mxGeometry>
        </mxCell>
        <mxCell id="Ng3zc3pQ8-nIIgDV_-j_-85" value="" style="endArrow=none;html=1;rounded=0;strokeColor=#0F140C;fontFamily=Helvetica;fontSize=12;fontColor=default;fillColor=#B2C9AB;exitX=0.264;exitY=0.952;exitDx=0;exitDy=0;exitPerimeter=0;strokeWidth=2;" edge="1" parent="Ng3zc3pQ8-nIIgDV_-j_-82" source="Ng3zc3pQ8-nIIgDV_-j_-83">
          <mxGeometry width="50" height="50" relative="1" as="geometry">
            <mxPoint x="47.864000000000004" y="104.16" as="sourcePoint" />
            <mxPoint x="54.808" y="48.60799999999998" as="targetPoint" />
          </mxGeometry>
        </mxCell>
        <mxCell id="Ng3zc3pQ8-nIIgDV_-j_-86" value="" style="endArrow=none;html=1;rounded=0;strokeColor=#0F140C;fontFamily=Helvetica;fontSize=12;fontColor=default;fillColor=#B2C9AB;exitX=0.728;exitY=0.948;exitDx=0;exitDy=0;exitPerimeter=0;strokeWidth=2;" edge="1" parent="Ng3zc3pQ8-nIIgDV_-j_-82" source="Ng3zc3pQ8-nIIgDV_-j_-83">
          <mxGeometry width="50" height="50" relative="1" as="geometry">
            <mxPoint x="110.36000000000001" y="118.04800000000006" as="sourcePoint" />
            <mxPoint x="132.5808" y="48.60799999999998" as="targetPoint" />
          </mxGeometry>
        </mxCell>
        <mxCell id="Ng3zc3pQ8-nIIgDV_-j_-87" value="&lt;font face=&quot;Comic Sans MS&quot; color=&quot;#000000&quot;&gt;&lt;span style=&quot;font-size: 13px;&quot;&gt;&lt;b&gt;x&lt;/b&gt;&lt;/span&gt;&lt;/font&gt;" style="text;strokeColor=none;align=center;fillColor=none;html=1;verticalAlign=middle;whiteSpace=wrap;rounded=0;fontFamily=Architects Daughter;fontSource=https://fonts.googleapis.com/css?family=Architects+Daughter;container=0;" vertex="1" parent="Ng3zc3pQ8-nIIgDV_-j_-82">
          <mxGeometry x="59.519999999999996" y="12.4" width="62" height="37.2" as="geometry" />
        </mxCell>
        <mxCell id="Ng3zc3pQ8-nIIgDV_-j_-88" value="&lt;font color=&quot;#000000&quot; size=&quot;1&quot; face=&quot;Comic Sans MS&quot;&gt;&lt;b style=&quot;font-size: 13px;&quot;&gt;x++&lt;/b&gt;&lt;/font&gt;" style="text;strokeColor=none;align=center;fillColor=none;html=1;verticalAlign=middle;whiteSpace=wrap;rounded=0;fontFamily=Architects Daughter;fontSource=https://fonts.googleapis.com/css?family=Architects+Daughter;container=0;" vertex="1" parent="Ng3zc3pQ8-nIIgDV_-j_-82">
          <mxGeometry x="122.76" y="78.12" width="62" height="37.2" as="geometry" />
        </mxCell>
        <mxCell id="Ng3zc3pQ8-nIIgDV_-j_-89" value="&lt;font color=&quot;#000000&quot; size=&quot;1&quot; face=&quot;Comic Sans MS&quot;&gt;&lt;b style=&quot;font-size: 13px;&quot;&gt;x &amp;lt; 10&lt;/b&gt;&lt;/font&gt;" style="text;strokeColor=none;align=center;fillColor=none;html=1;verticalAlign=middle;whiteSpace=wrap;rounded=0;fontFamily=Architects Daughter;fontSource=https://fonts.googleapis.com/css?family=Architects+Daughter;container=0;" vertex="1" parent="Ng3zc3pQ8-nIIgDV_-j_-82">
          <mxGeometry x="54.56" y="78.12" width="74.4" height="37.2" as="geometry" />
        </mxCell>
        <mxCell id="Ng3zc3pQ8-nIIgDV_-j_-90" value="&lt;font color=&quot;#000000&quot; size=&quot;1&quot; face=&quot;Comic Sans MS&quot;&gt;&lt;b style=&quot;font-size: 13px;&quot;&gt;x = 0&lt;/b&gt;&lt;/font&gt;" style="text;strokeColor=none;align=center;fillColor=none;html=1;verticalAlign=middle;whiteSpace=wrap;rounded=0;fontFamily=Architects Daughter;fontSource=https://fonts.googleapis.com/css?family=Architects+Daughter;container=0;" vertex="1" parent="Ng3zc3pQ8-nIIgDV_-j_-82">
          <mxGeometry y="78.12" width="62" height="37.2" as="geometry" />
        </mxCell>
        <mxCell id="Ng3zc3pQ8-nIIgDV_-j_-91" value="" style="group;aspect=fixed;" vertex="1" connectable="0" parent="Ng3zc3pQ8-nIIgDV_-j_-80">
          <mxGeometry x="237.64" y="38" width="131" height="130" as="geometry" />
        </mxCell>
        <mxCell id="Ng3zc3pQ8-nIIgDV_-j_-92" value="" style="rhombus;whiteSpace=wrap;html=1;rounded=0;labelBackgroundColor=none;strokeColor=#0F140C;strokeWidth=2;align=center;verticalAlign=middle;fontFamily=Helvetica;fontSize=12;fontColor=default;fillColor=#d5e8d4;" vertex="1" parent="Ng3zc3pQ8-nIIgDV_-j_-91">
          <mxGeometry width="130" height="130" as="geometry" />
        </mxCell>
        <mxCell id="Ng3zc3pQ8-nIIgDV_-j_-93" value="&lt;font size=&quot;1&quot; face=&quot;Comic Sans MS&quot; color=&quot;#000000&quot;&gt;&lt;b style=&quot;font-size: 16px;&quot;&gt;vector[x]&lt;/b&gt;&lt;/font&gt;&lt;div&gt;&lt;font face=&quot;Comic Sans MS&quot; color=&quot;#000000&quot;&gt;&lt;span style=&quot;font-size: 16px;&quot;&gt;&lt;b&gt;&amp;gt;&lt;/b&gt;&lt;/span&gt;&lt;/font&gt;&lt;/div&gt;&lt;div&gt;&lt;font size=&quot;1&quot; face=&quot;Comic Sans MS&quot; color=&quot;#000000&quot;&gt;&lt;b style=&quot;font-size: 16px;&quot;&gt;max_abs&lt;/b&gt;&lt;/font&gt;&lt;/div&gt;" style="text;strokeColor=none;align=center;fillColor=none;html=1;verticalAlign=middle;whiteSpace=wrap;rounded=0;fontFamily=Architects Daughter;fontSource=https://fonts.googleapis.com/css?family=Architects+Daughter;" vertex="1" parent="Ng3zc3pQ8-nIIgDV_-j_-91">
          <mxGeometry x="1" y="31" width="130" height="70" as="geometry" />
        </mxCell>
        <mxCell id="Ng3zc3pQ8-nIIgDV_-j_-94" value="" style="line;strokeWidth=2;html=1;perimeter=backbonePerimeter;points=[];outlineConnect=0;hachureGap=4;fontFamily=Architects Daughter;fontSource=https://fonts.googleapis.com/css?family=Architects+Daughter;strokeColor=#000000;" vertex="1" parent="Ng3zc3pQ8-nIIgDV_-j_-80">
          <mxGeometry x="210" y="98" width="27.64" height="10" as="geometry" />
        </mxCell>
        <mxCell id="Ng3zc3pQ8-nIIgDV_-j_-95" value="" style="line;strokeWidth=2;html=1;perimeter=backbonePerimeter;points=[];outlineConnect=0;hachureGap=4;fontFamily=Architects Daughter;fontSource=https://fonts.googleapis.com/css?family=Architects+Daughter;strokeColor=#000000;" vertex="1" parent="Ng3zc3pQ8-nIIgDV_-j_-80">
          <mxGeometry x="365.64" y="98" width="34.36" height="10" as="geometry" />
        </mxCell>
        <mxCell id="Ng3zc3pQ8-nIIgDV_-j_-96" value="" style="line;strokeWidth=2;direction=south;html=1;hachureGap=4;fontFamily=Architects Daughter;fontSource=https://fonts.googleapis.com/css?family=Architects+Daughter;strokeColor=#000000;" vertex="1" parent="Ng3zc3pQ8-nIIgDV_-j_-80">
          <mxGeometry x="207" y="103" width="10" height="87" as="geometry" />
        </mxCell>
        <mxCell id="Ng3zc3pQ8-nIIgDV_-j_-97" value="" style="line;strokeWidth=2;direction=south;html=1;hachureGap=4;fontFamily=Architects Daughter;fontSource=https://fonts.googleapis.com/css?family=Architects+Daughter;strokeColor=#000000;" vertex="1" parent="Ng3zc3pQ8-nIIgDV_-j_-80">
          <mxGeometry x="394" y="104" width="10" height="176" as="geometry" />
        </mxCell>
        <mxCell id="Ng3zc3pQ8-nIIgDV_-j_-98" value="" style="line;strokeWidth=2;direction=south;html=1;hachureGap=4;fontFamily=Architects Daughter;fontSource=https://fonts.googleapis.com/css?family=Architects+Daughter;strokeColor=#000000;" vertex="1" parent="Ng3zc3pQ8-nIIgDV_-j_-80">
          <mxGeometry x="210" y="250" width="10" height="30" as="geometry" />
        </mxCell>
        <mxCell id="Ng3zc3pQ8-nIIgDV_-j_-99" value="" style="line;strokeWidth=2;html=1;perimeter=backbonePerimeter;points=[];outlineConnect=0;hachureGap=4;fontFamily=Architects Daughter;fontSource=https://fonts.googleapis.com/css?family=Architects+Daughter;strokeColor=#000000;" vertex="1" parent="Ng3zc3pQ8-nIIgDV_-j_-80">
          <mxGeometry x="215" y="275" width="185" height="10" as="geometry" />
        </mxCell>
        <mxCell id="Ng3zc3pQ8-nIIgDV_-j_-105" value="" style="group;aspect=fixed;" vertex="1" connectable="0" parent="Ng3zc3pQ8-nIIgDV_-j_-80">
          <mxGeometry x="122.27736842105259" y="190" width="203.0921052631578" height="60" as="geometry" />
        </mxCell>
        <mxCell id="Ng3zc3pQ8-nIIgDV_-j_-101" value="" style="rounded=0;whiteSpace=wrap;html=1;labelBackgroundColor=none;strokeColor=#0f100e;strokeWidth=2;align=center;verticalAlign=middle;fontFamily=Helvetica;fontSize=12;fontColor=default;fillColor=#d5e8d4;container=0;aspect=fixed;" vertex="1" parent="Ng3zc3pQ8-nIIgDV_-j_-105">
          <mxGeometry y="2.5299999999999727" width="203.09210526315786" height="56.47058823529411" as="geometry" />
        </mxCell>
        <mxCell id="Ng3zc3pQ8-nIIgDV_-j_-102" value="&lt;font face=&quot;Comic Sans MS&quot; color=&quot;#000000&quot;&gt;&lt;span style=&quot;font-size: 15px;&quot;&gt;&lt;b&gt;max_abc = vector[x&lt;/b&gt;&lt;/span&gt;&lt;/font&gt;&lt;b style=&quot;font-size: 15px; color: rgb(0, 0, 0); font-family: &amp;quot;Comic Sans MS&amp;quot;; background-color: initial;&quot;&gt;]&lt;/b&gt;&lt;div&gt;&lt;b style=&quot;font-size: 15px; color: rgb(0, 0, 0); font-family: &amp;quot;Comic Sans MS&amp;quot;; background-color: initial;&quot;&gt;maximo_absoluto = vec2[x]&lt;/b&gt;&lt;/div&gt;" style="text;strokeColor=none;align=center;fillColor=none;html=1;verticalAlign=middle;whiteSpace=wrap;rounded=0;fontFamily=Architects Daughter;fontSource=https://fonts.googleapis.com/css?family=Architects+Daughter;container=0;aspect=fixed;" vertex="1" parent="Ng3zc3pQ8-nIIgDV_-j_-105">
          <mxGeometry x="0.30263157894739834" width="202" height="60" as="geometry" />
        </mxCell>
        <mxCell id="Ng3zc3pQ8-nIIgDV_-j_-109" value="" style="group;aspect=fixed;" vertex="1" connectable="0" parent="Ng3zc3pQ8-nIIgDV_-j_-116">
          <mxGeometry x="95" y="1603" width="300" height="41" as="geometry" />
        </mxCell>
        <mxCell id="Ng3zc3pQ8-nIIgDV_-j_-107" value="" style="shape=trapezoid;perimeter=trapezoidPerimeter;whiteSpace=wrap;html=1;fixedSize=1;rounded=0;labelBackgroundColor=none;strokeColor=#0F140C;strokeWidth=2;align=center;verticalAlign=middle;fontFamily=Helvetica;fontSize=12;fontColor=default;fillColor=#d5e8d4;container=0;" vertex="1" parent="Ng3zc3pQ8-nIIgDV_-j_-109">
          <mxGeometry width="300" height="40" as="geometry" />
        </mxCell>
        <mxCell id="Ng3zc3pQ8-nIIgDV_-j_-108" value="&lt;font face=&quot;Comic Sans MS&quot; color=&quot;#000000&quot;&gt;&lt;span style=&quot;font-size: 14px;&quot;&gt;&lt;b&gt;&quot;Máximo Absoluto: &quot;,&amp;nbsp;&lt;/b&gt;&lt;/span&gt;&lt;/font&gt;&lt;b style=&quot;font-size: 14px; color: rgb(0, 0, 0); font-family: &amp;quot;Comic Sans MS&amp;quot;; background-color: initial;&quot;&gt;maximo_absoluto&lt;/b&gt;" style="text;strokeColor=none;align=center;fillColor=none;html=1;verticalAlign=middle;whiteSpace=wrap;rounded=0;fontFamily=Architects Daughter;fontSource=https://fonts.googleapis.com/css?family=Architects+Daughter;container=0;" vertex="1" parent="Ng3zc3pQ8-nIIgDV_-j_-109">
          <mxGeometry y="1" width="300" height="40" as="geometry" />
        </mxCell>
        <mxCell id="Ng3zc3pQ8-nIIgDV_-j_-112" value="" style="line;strokeWidth=2;direction=south;html=1;hachureGap=4;fontFamily=Architects Daughter;fontSource=https://fonts.googleapis.com/css?family=Architects+Daughter;strokeColor=#000000;" vertex="1" parent="Ng3zc3pQ8-nIIgDV_-j_-109">
          <mxGeometry x="149" y="-33" width="10" height="33" as="geometry" />
        </mxCell>
        <mxCell id="Ng3zc3pQ8-nIIgDV_-j_-110" value="" style="line;strokeWidth=2;direction=south;html=1;hachureGap=4;fontFamily=Architects Daughter;fontSource=https://fonts.googleapis.com/css?family=Architects+Daughter;strokeColor=#000000;" vertex="1" parent="Ng3zc3pQ8-nIIgDV_-j_-116">
          <mxGeometry x="254" y="770" width="10" height="50" as="geometry" />
        </mxCell>
        <mxCell id="Ng3zc3pQ8-nIIgDV_-j_-111" value="" style="line;strokeWidth=2;direction=south;html=1;hachureGap=4;fontFamily=Architects Daughter;fontSource=https://fonts.googleapis.com/css?family=Architects+Daughter;strokeColor=#000000;" vertex="1" parent="Ng3zc3pQ8-nIIgDV_-j_-116">
          <mxGeometry x="249" y="1170" width="10" height="50" as="geometry" />
        </mxCell>
      </root>
    </mxGraphModel>
  </diagram>
</mxfile>
